<svg xmlns="http://www.w3.org/2000/svg" viewBox="-240 -240 480 480">
  <path fill="url(#a)" d="M-130-140h86c7 0 10-9 8-13s-10-12-10-28c0-22 19-46 46-46s46 24 46 46c0 16-8 24-10 28s1 13 8 13h86a10 10 0 0 1 10 10v84c0 3-3 5-6 3s-10-9-30-9C83-52 53-36 53 0s30 52 51 52c20 0 27-7 30-9s6 0 6 3v84a10 10 0 0 1-10 10H44c-7 0-10 9-8 13s10 12 10 28c0 22-19 46-46 46s-46-24-46-46c0-16 8-24 10-28s-1-13-8-13h-86a10 10 0 0 1-10-10V46c0-3 3-5 6-3s10 9 30 9c21 0 51-16 51-52s-30-52-51-52c-20 0-27 7-30 9s-6 0-6-3v-84a10 10 0 0 1 10-10"/>
  <defs>
    <linearGradient id="a" gradientTransform="rotate(70)">
      <stop offset="5%" stop-color="#fbbf24"/>
      <stop offset="95%" stop-color="#d97706"/>
    </linearGradient>
  </defs>
  <circle cx="-68" cy="-125" r="44" fill="#fff"/>
  <circle cx="-68" cy="-125" r="28" fill="#1a1a1a"/>
  <circle cx="-82" cy="-139" r="12" fill="#fff"/>
  <path d="M-98-157 Q-68-170 -38-157" fill="none" stroke="#1a1a1a" stroke-width="6" stroke-linecap="round"/>
  <circle cx="68" cy="-125" r="44" fill="#fff"/>
  <circle cx="68" cy="-125" r="28" fill="#1a1a1a"/>
  <circle cx="54" cy="-139" r="12" fill="#fff"/>
  <path d="M38-157 Q68-170 98-157" fill="none" stroke="#1a1a1a" stroke-width="6" stroke-linecap="round"/>
  <path fill="none" stroke="#1a1a1a" stroke-linecap="round" stroke-width="7" d="M-40 -35 Q0 -7 40 -35"/>
  <path fill="#1a1a1a" d="M-40 -35 Q0 -13 40 -35 Q0 -3 -40 -35Z"/>
  <text x="0" y="155" text-anchor="middle" font-size="72" font-family="monospace" fill="#1a1a1a" opacity="0.7">!</text>
</svg>
