<svg xmlns="http://www.w3.org/2000/svg" viewBox="-240 -240 480 480">
  <path fill="url(#a)" d="M-130-140h86c7 0 10-9 8-13s-10-12-10-28c0-22 19-46 46-46s46 24 46 46c0 16-8 24-10 28s1 13 8 13h86a10 10 0 0 1 10 10v84c0 3-3 5-6 3s-10-9-30-9C83-52 53-36 53 0s30 52 51 52c20 0 27-7 30-9s6 0 6 3v84a10 10 0 0 1-10 10h-260a10 10 0 0 1-10-10v-260a10 10 0 0 1 10-10"/>
  <defs>
    <linearGradient id="a" gradientTransform="rotate(70)">
      <stop offset="5%" stop-color="#34d399"/>
      <stop offset="95%" stop-color="#059669"/>
    </linearGradient>
  </defs>
  <g transform="translate(-80 50)">
    <circle r="46" fill="#fff"/>
    <circle r="26" fill="#1a1a1a"/>
    <circle cx="-12" cy="-12" r="10" fill="#fff"/>
    <path d="M-16 22 Q0 34 16 22" fill="none" stroke="#1a1a1a" stroke-width="5" stroke-linecap="round">
      <animateTransform attributeName="transform" dur="4s" keyTimes="0; 0.8; 0.85; 0.9; 1" repeatCount="indefinite" type="scale" values="1; 1; 1.1; 0.95; 1"/>
    </path>
  </g>
  <g transform="translate(60 50)">
    <circle r="46" fill="#fff"/>
    <circle r="26" fill="#1a1a1a"/>
    <circle cx="-12" cy="-12" r="10" fill="#fff"/>
    <path d="M-16 22 Q0 34 16 22" fill="none" stroke="#1a1a1a" stroke-width="5" stroke-linecap="round">
      <animateTransform attributeName="transform" dur="4s" keyTimes="0; 0.8; 0.85; 0.9; 1" repeatCount="indefinite" type="scale" values="1; 1; 1.1; 0.95; 1"/>
    </path>
  </g>
  <path fill="#d1fae5" d="m70-140 10-6q-12-28 5-46 65 17 88 75 15-12 26 0 5 8 0 14-3 4-10-2-3-3-12 0 24 92 0 105-12 5-19-12-52-112-88-128"/>
</svg>
