<svg xmlns="http://www.w3.org/2000/svg" viewBox="-240 -240 480 480">
  <defs>
    <linearGradient id="a" gradientTransform="rotate(70)">
      <stop offset="5%" stop-color="#fb923c"/>
      <stop offset="95%" stop-color="#ea580c"/>
    </linearGradient>
  </defs>
  <path fill="url(#a)" d="M-130-140h84c3 0 5 3 3 6s-9 10-9 30c0 21 16 51 52 51s52-30 52-51c0-20-7-27-9-30s0-6 3-6h84a10 10 0 0 1 10 10v86c0 7 9 10 13 8s12-10 28-10c22 0 46 19 46 46s-24 46-46 46c-16 0-24-8-28-10s-13 1-13 8v86a10 10 0 0 1-10 10H46c-3 0-5-3-3-6s9-10 9-30c0-21-16-51-52-51s-52 30-52 51c0 20 7 27 9 30s0 6-3 6h-84a10 10 0 0 1-10-10v-260a10 10 0 0 1 10-10"/>
  <circle cx="-30" cy="-20" r="44" fill="#fff"/>
  <circle cx="-16" cy="-20" r="30"/>
  <circle cx="-34" cy="-44" r="14" fill="#fff"/>
  <circle cx="90" cy="-20" r="44" fill="#fff"/>
  <circle cx="104" cy="-20" r="30"/>
  <circle cx="86" cy="-44" r="14" fill="#fff"/>
  <path fill="#ffedd5" d="M-150-95q-4-4 0-9 0-15-2-19t1-21 0-29q-1-2-15-14-3-2-14 10-3 4-3 12c0 6-5 7-8 3q-3-6-2-21 1-7 12-24t42-10 37 13 54 65q8 1 9 8 41 0 47 6t-30 34l-22-3 12 8q-52 27-96 31l-3-4-5 4q-52-2-44-12t30-27"/>
  <g transform="translate(175 -20)">
    <animateTransform additive="sum" attributeName="transform" calcMode="spline" dur="6s" keySplines="0.7 0 0.3 1; 0.4 0 0.6 1" repeatCount="indefinite" type="rotate" values="-3;8;-3"/>
    <line x1="0" y1="0" x2="0" y2="-105" stroke="#ffedd5" stroke-width="14" stroke-linecap="round"/>
    <circle cx="0" cy="-118" r="18" fill="#ea580c"/>
    <circle cx="0" cy="-118" r="9" fill="#fff"/>
  </g>
</svg>
